<?xml version="1.0" encoding="utf-8"?>
<!-- Generator: Adobe Illustrator 18.1.1, SVG Export Plug-In . SVG Version: 6.00 Build 0)  -->
<svg version="1.1" id="レイヤー_1" xmlns="http://www.w3.org/2000/svg" xmlns:xlink="http://www.w3.org/1999/xlink" x="0px"
	 y="0px" viewBox="123.3 0 595.2 595.2" enable-background="new 123.3 0 595.2 595.2" xml:space="preserve">
<path fill="#FFD800" d="M420.9,0C256.3,0,123.3,133,123.3,297.6s133,297.6,297.6,297.6s297.6-133,297.6-297.6S585.6,0,420.9,0z
	 M553,436.1c-46.1-1.8-33.5-27.1-46.1-27.1c-12.7,0-84.1,70.6-145.7,34.4c-64.2-37.1-6.3-165.6-18.1-174.6
	c-28-22.6-97.7,88.7-149.3,12.7C154.9,224.5,306,96,401,158.5c88.7,58.8-39.8,207.2-7.2,238.8c36.2,34.4,85.9-47.9,122.1-29.9
	c36.2,17.2,16.3,42.5,35.3,44.3c26.2,2.7,66-40.7,72.4-36.2C630.8,379.1,584.7,437,553,436.1z M643.5,359.2c-5.4,0-10.9-4.5-10.9-10
	s4.5-10,10.9-10c6.4,0,10.9,4.5,10.9,10S648.9,359.2,643.5,359.2z"/>
</svg>
